{
    "asset" : {
        "generator" : "Khronos glTF Blender I/O v0.9.10",
        "version" : "2.0"
    },
    "scene" : 0,
    "scenes" : [
        {
            "name" : "Scene",
            "nodes" : [
                0
            ]
        }
    ],
    "nodes" : [
        {
            "mesh" : 0,
            "name" : "Plane"
        }
    ],
    "materials" : [
        {
            "doubleSided" : true,
            "name" : "Base",
            "pbrMetallicRoughness" : {
                "baseColorFactor" : [
                    0.800000011920929,
                    0.800000011920929,
                    0.800000011920929,
                    1
                ],
                "metallicFactor" : 0,
                "roughnessFactor" : 1
            }
        },
        {
            "doubleSided" : true,
            "name" : "Y",
            "pbrMetallicRoughness" : {
                "baseColorFactor" : [
                    0.19802188873291016,
                    0.8000000715255737,
                    0.2158750742673874,
                    1
                ],
                "metallicFactor" : 0,
                "roughnessFactor" : 1
            }
        },
        {
            "doubleSided" : true,
            "name" : "Z",
            "pbrMetallicRoughness" : {
                "baseColorFactor" : [
                    0.14473183453083038,
                    0.1390220820903778,
                    0.8000000715255737,
                    1
                ],
                "metallicFactor" : 0,
                "roughnessFactor" : 1
            }
        },
        {
            "doubleSided" : true,
            "name" : "X",
            "pbrMetallicRoughness" : {
                "baseColorFactor" : [
                    0.8000000715255737,
                    0.25261062383651733,
                    0.18243752419948578,
                    1
                ],
                "metallicFactor" : 0,
                "roughnessFactor" : 0.5
            }
        }
    ],
    "meshes" : [
        {
            "name" : "Plane.001",
            "primitives" : [
                {
                    "attributes" : {
                        "POSITION" : 0,
                        "NORMAL" : 1,
                        "TEXCOORD_0" : 2
                    },
                    "indices" : 3,
                    "material" : 0
                },
                {
                    "attributes" : {
                        "POSITION" : 4,
                        "NORMAL" : 5,
                        "TEXCOORD_0" : 6
                    },
                    "indices" : 7,
                    "material" : 1
                },
                {
                    "attributes" : {
                        "POSITION" : 8,
                        "NORMAL" : 9,
                        "TEXCOORD_0" : 10
                    },
                    "indices" : 7,
                    "material" : 2
                },
                {
                    "attributes" : {
                        "POSITION" : 11,
                        "NORMAL" : 12,
                        "TEXCOORD_0" : 13
                    },
                    "indices" : 7,
                    "material" : 3
                }
            ]
        }
    ],
    "accessors" : [
        {
            "bufferView" : 0,
            "componentType" : 5126,
            "count" : 44,
            "max" : [
                0.050000011920928955,
                0.050000011920928955,
                0.05000000447034836
            ],
            "min" : [
                -0.050000011920928955,
                -0.050000011920928955,
                -0.05000000447034836
            ],
            "type" : "VEC3"
        },
        {
            "bufferView" : 1,
            "componentType" : 5126,
            "count" : 44,
            "type" : "VEC3"
        },
        {
            "bufferView" : 2,
            "componentType" : 5126,
            "count" : 44,
            "type" : "VEC2"
        },
        {
            "bufferView" : 3,
            "componentType" : 5123,
            "count" : 90,
            "type" : "SCALAR"
        },
        {
            "bufferView" : 4,
            "componentType" : 5126,
            "count" : 20,
            "max" : [
                0.02250000834465027,
                0.5000000596046448,
                0.02250000089406967
            ],
            "min" : [
                -0.02250000834465027,
                0.050000011920928955,
                -0.02250000461935997
            ],
            "type" : "VEC3"
        },
        {
            "bufferView" : 5,
            "componentType" : 5126,
            "count" : 20,
            "type" : "VEC3"
        },
        {
            "bufferView" : 6,
            "componentType" : 5126,
            "count" : 20,
            "type" : "VEC2"
        },
        {
            "bufferView" : 7,
            "componentType" : 5123,
            "count" : 30,
            "type" : "SCALAR"
        },
        {
            "bufferView" : 8,
            "componentType" : 5126,
            "count" : 20,
            "max" : [
                0.024000011384487152,
                0.024000011384487152,
                0.5000000596046448
            ],
            "min" : [
                -0.024000011384487152,
                -0.024000011384487152,
                0.04999999329447746
            ],
            "type" : "VEC3"
        },
        {
            "bufferView" : 9,
            "componentType" : 5126,
            "count" : 20,
            "type" : "VEC3"
        },
        {
            "bufferView" : 10,
            "componentType" : 5126,
            "count" : 20,
            "type" : "VEC2"
        },
        {
            "bufferView" : 11,
            "componentType" : 5126,
            "count" : 20,
            "max" : [
                0.5,
                0.024000011384487152,
                0.024000005796551704
            ],
            "min" : [
                0.050000011920928955,
                -0.024000011384487152,
                -0.024000005796551704
            ],
            "type" : "VEC3"
        },
        {
            "bufferView" : 12,
            "componentType" : 5126,
            "count" : 20,
            "type" : "VEC3"
        },
        {
            "bufferView" : 13,
            "componentType" : 5126,
            "count" : 20,
            "type" : "VEC2"
        }
    ],
    "bufferViews" : [
        {
            "buffer" : 0,
            "byteLength" : 528,
            "byteOffset" : 0
        },
        {
            "buffer" : 0,
            "byteLength" : 528,
            "byteOffset" : 528
        },
        {
            "buffer" : 0,
            "byteLength" : 352,
            "byteOffset" : 1056
        },
        {
            "buffer" : 0,
            "byteLength" : 180,
            "byteOffset" : 1408
        },
        {
            "buffer" : 0,
            "byteLength" : 240,
            "byteOffset" : 1588
        },
        {
            "buffer" : 0,
            "byteLength" : 240,
            "byteOffset" : 1828
        },
        {
            "buffer" : 0,
            "byteLength" : 160,
            "byteOffset" : 2068
        },
        {
            "buffer" : 0,
            "byteLength" : 60,
            "byteOffset" : 2228
        },
        {
            "buffer" : 0,
            "byteLength" : 240,
            "byteOffset" : 2288
        },
        {
            "buffer" : 0,
            "byteLength" : 240,
            "byteOffset" : 2528
        },
        {
            "buffer" : 0,
            "byteLength" : 160,
            "byteOffset" : 2768
        },
        {
            "buffer" : 0,
            "byteLength" : 240,
            "byteOffset" : 2928
        },
        {
            "buffer" : 0,
            "byteLength" : 240,
            "byteOffset" : 3168
        },
        {
            "buffer" : 0,
            "byteLength" : 160,
            "byteOffset" : 3408
        }
    ],
    "buffers" : [
        {
            "byteLength" : 3568,
            "uri" : "data:application/octet-stream;base64,"
        }
    ]
}
