{
    "asset" : {
        "generator" : "Khronos glTF Blender I/O v0.9.10",
        "version" : "2.0"
    },
    "scene" : 0,
    "scenes" : [
        {
            "name" : "Scene",
            "nodes" : [
                0
            ]
        }
    ],
    "nodes" : [
        {
            "mesh" : 0,
            "name" : "Plane",
            "scale" : [
                0.19999998807907104,
                0.19999998807907104,
                0.19999998807907104
            ]
        }
    ],
    "materials" : [
        {
            "doubleSided" : true,
            "name" : "Base",
            "pbrMetallicRoughness" : {
                "baseColorFactor" : [
                    0.800000011920929,
                    0.800000011920929,
                    0.800000011920929,
                    1
                ],
                "metallicFactor" : 0,
                "roughnessFactor" : 1
            }
        },
        {
            "doubleSided" : true,
            "name" : "Y",
            "pbrMetallicRoughness" : {
                "baseColorFactor" : [
                    0.19802188873291016,
                    0.8000000715255737,
                    0.2158750742673874,
                    1
                ],
                "metallicFactor" : 0,
                "roughnessFactor" : 1
            }
        },
        {
            "doubleSided" : true,
            "name" : "Z",
            "pbrMetallicRoughness" : {
                "baseColorFactor" : [
                    0.14473183453083038,
                    0.1390220820903778,
                    0.8000000715255737,
                    1
                ],
                "metallicFactor" : 0,
                "roughnessFactor" : 1
            }
        },
        {
            "doubleSided" : true,
            "name" : "X",
            "pbrMetallicRoughness" : {
                "baseColorFactor" : [
                    0.8000000715255737,
                    0.25261062383651733,
                    0.18243752419948578,
                    1
                ],
                "metallicFactor" : 0,
                "roughnessFactor" : 0.5
            }
        }
    ],
    "meshes" : [
        {
            "name" : "Plane.001",
            "primitives" : [
                {
                    "attributes" : {
                        "POSITION" : 0,
                        "NORMAL" : 1,
                        "TEXCOORD_0" : 2
                    },
                    "indices" : 3,
                    "material" : 0
                },
                {
                    "attributes" : {
                        "POSITION" : 4,
                        "NORMAL" : 5,
                        "TEXCOORD_0" : 6
                    },
                    "indices" : 7,
                    "material" : 1
                },
                {
                    "attributes" : {
                        "POSITION" : 8,
                        "NORMAL" : 9,
                        "TEXCOORD_0" : 10
                    },
                    "indices" : 11,
                    "material" : 2
                },
                {
                    "attributes" : {
                        "POSITION" : 12,
                        "NORMAL" : 13,
                        "TEXCOORD_0" : 14
                    },
                    "indices" : 7,
                    "material" : 3
                }
            ]
        }
    ],
    "accessors" : [
        {
            "bufferView" : 0,
            "componentType" : 5126,
            "count" : 60,
            "max" : [
                0.050000011920928955,
                0.05000000447034836,
                0.050000011920928955
            ],
            "min" : [
                -0.050000011920928955,
                -0.05000000447034836,
                -0.050000011920928955
            ],
            "type" : "VEC3"
        },
        {
            "bufferView" : 1,
            "componentType" : 5126,
            "count" : 60,
            "type" : "VEC3"
        },
        {
            "bufferView" : 2,
            "componentType" : 5126,
            "count" : 60,
            "type" : "VEC2"
        },
        {
            "bufferView" : 3,
            "componentType" : 5123,
            "count" : 126,
            "type" : "SCALAR"
        },
        {
            "bufferView" : 4,
            "componentType" : 5126,
            "count" : 40,
            "max" : [
                0.025000005960464478,
                0.02500000223517418,
                0.5000000596046448
            ],
            "min" : [
                -0.025000005960464478,
                -0.02500000223517418,
                -0.5000000596046448
            ],
            "type" : "VEC3"
        },
        {
            "bufferView" : 5,
            "componentType" : 5126,
            "count" : 40,
            "type" : "VEC3"
        },
        {
            "bufferView" : 6,
            "componentType" : 5126,
            "count" : 40,
            "type" : "VEC2"
        },
        {
            "bufferView" : 7,
            "componentType" : 5123,
            "count" : 60,
            "type" : "SCALAR"
        },
        {
            "bufferView" : 8,
            "componentType" : 5126,
            "count" : 20,
            "max" : [
                0.024000011384487152,
                0.5000000596046448,
                0.024000011384487152
            ],
            "min" : [
                -0.024000011384487152,
                0.04999999329447746,
                -0.024000011384487152
            ],
            "type" : "VEC3"
        },
        {
            "bufferView" : 9,
            "componentType" : 5126,
            "count" : 20,
            "type" : "VEC3"
        },
        {
            "bufferView" : 10,
            "componentType" : 5126,
            "count" : 20,
            "type" : "VEC2"
        },
        {
            "bufferView" : 11,
            "componentType" : 5123,
            "count" : 30,
            "type" : "SCALAR"
        },
        {
            "bufferView" : 12,
            "componentType" : 5126,
            "count" : 40,
            "max" : [
                0.5,
                0.024000005796551704,
                0.024000011384487152
            ],
            "min" : [
                -0.5000000596046448,
                -0.024000005796551704,
                -0.024000011384487152
            ],
            "type" : "VEC3"
        },
        {
            "bufferView" : 13,
            "componentType" : 5126,
            "count" : 40,
            "type" : "VEC3"
        },
        {
            "bufferView" : 14,
            "componentType" : 5126,
            "count" : 40,
            "type" : "VEC2"
        }
    ],
    "bufferViews" : [
        {
            "buffer" : 0,
            "byteLength" : 720,
            "byteOffset" : 0
        },
        {
            "buffer" : 0,
            "byteLength" : 720,
            "byteOffset" : 720
        },
        {
            "buffer" : 0,
            "byteLength" : 480,
            "byteOffset" : 1440
        },
        {
            "buffer" : 0,
            "byteLength" : 252,
            "byteOffset" : 1920
        },
        {
            "buffer" : 0,
            "byteLength" : 480,
            "byteOffset" : 2172
        },
        {
            "buffer" : 0,
            "byteLength" : 480,
            "byteOffset" : 2652
        },
        {
            "buffer" : 0,
            "byteLength" : 320,
            "byteOffset" : 3132
        },
        {
            "buffer" : 0,
            "byteLength" : 120,
            "byteOffset" : 3452
        },
        {
            "buffer" : 0,
            "byteLength" : 240,
            "byteOffset" : 3572
        },
        {
            "buffer" : 0,
            "byteLength" : 240,
            "byteOffset" : 3812
        },
        {
            "buffer" : 0,
            "byteLength" : 160,
            "byteOffset" : 4052
        },
        {
            "buffer" : 0,
            "byteLength" : 60,
            "byteOffset" : 4212
        },
        {
            "buffer" : 0,
            "byteLength" : 480,
            "byteOffset" : 4272
        },
        {
            "buffer" : 0,
            "byteLength" : 480,
            "byteOffset" : 4752
        },
        {
            "buffer" : 0,
            "byteLength" : 320,
            "byteOffset" : 5232
        }
    ],
    "buffers" : [
        {
            "byteLength" : 5552,
            "uri" : "data:application/octet-stream;base64,"
        }
    ]
}
